<mxfile host="app.diagrams.net" agent="Mozilla/5.0 (Windows NT 10.0; Win64; x64) AppleWebKit/537.36 (KHTML, like Gecko) Chrome/133.0.0.0 Safari/537.36 Edg/133.0.0.0" version="26.0.14">
  <diagram name="第 1 页" id="YcJbc1lj4-EX00k3wP05">
    <mxGraphModel dx="989" dy="541" grid="1" gridSize="10" guides="1" tooltips="1" connect="1" arrows="1" fold="1" page="1" pageScale="1" pageWidth="827" pageHeight="1169" math="0" shadow="0">
      <root>
        <mxCell id="0" />
        <mxCell id="1" parent="0" />
        <mxCell id="E2VWVS-g6_oO1wDZF_A2-11" value="&lt;b&gt;HTML 页面设计&lt;/b&gt;" style="shape=parallelogram;perimeter=parallelogramPerimeter;whiteSpace=wrap;html=1;fixedSize=1;fillColor=#fff2cc;strokeColor=#d6b656;" vertex="1" parent="1">
          <mxGeometry x="504" y="60" width="120" height="60" as="geometry" />
        </mxCell>
        <mxCell id="E2VWVS-g6_oO1wDZF_A2-13" value="&lt;font style=&quot;font-size: 10px;&quot;&gt;&lt;b&gt;JavaScript 功能实现&lt;/b&gt;&lt;/font&gt;" style="shape=parallelogram;perimeter=parallelogramPerimeter;whiteSpace=wrap;html=1;fixedSize=1;fillColor=#dae8fc;strokeColor=#6c8ebf;" vertex="1" parent="1">
          <mxGeometry x="504" y="280" width="120" height="60" as="geometry" />
        </mxCell>
        <mxCell id="E2VWVS-g6_oO1wDZF_A2-6" style="edgeStyle=orthogonalEdgeStyle;rounded=0;orthogonalLoop=1;jettySize=auto;html=1;exitX=1;exitY=0.5;exitDx=0;exitDy=0;entryX=0;entryY=0.5;entryDx=0;entryDy=0;" edge="1" parent="1" source="E2VWVS-g6_oO1wDZF_A2-2" target="E2VWVS-g6_oO1wDZF_A2-3">
          <mxGeometry relative="1" as="geometry" />
        </mxCell>
        <mxCell id="E2VWVS-g6_oO1wDZF_A2-2" value="&lt;b&gt;&lt;font style=&quot;font-size: 18px;&quot;&gt;试玩游戏&lt;/font&gt;&lt;/b&gt;&lt;div&gt;&lt;b&gt;&lt;font style=&quot;font-size: 18px;&quot;&gt;观察特性&lt;/font&gt;&lt;/b&gt;&lt;/div&gt;" style="rounded=0;whiteSpace=wrap;html=1;fillColor=#f8cecc;strokeColor=#b85450;" vertex="1" parent="1">
          <mxGeometry x="20" y="170" width="120" height="60" as="geometry" />
        </mxCell>
        <mxCell id="E2VWVS-g6_oO1wDZF_A2-27" value="" style="shape=flexArrow;endArrow=classic;startArrow=classic;html=1;rounded=0;exitX=1;exitY=0.5;exitDx=0;exitDy=0;entryX=1;entryY=0.5;entryDx=0;entryDy=0;fillColor=#e1d5e7;strokeColor=#9673a6;" edge="1" parent="1" source="E2VWVS-g6_oO1wDZF_A2-13" target="E2VWVS-g6_oO1wDZF_A2-11">
          <mxGeometry width="100" height="100" relative="1" as="geometry">
            <mxPoint x="620" y="320" as="sourcePoint" />
            <mxPoint x="720" y="220" as="targetPoint" />
            <Array as="points" />
          </mxGeometry>
        </mxCell>
        <mxCell id="E2VWVS-g6_oO1wDZF_A2-29" value="&lt;b&gt;&lt;font style=&quot;font-size: 12px;&quot;&gt;数据绑定&lt;/font&gt;&lt;/b&gt;" style="edgeLabel;html=1;align=center;verticalAlign=middle;resizable=0;points=[];" vertex="1" connectable="0" parent="E2VWVS-g6_oO1wDZF_A2-27">
          <mxGeometry x="0.3226" y="-2" relative="1" as="geometry">
            <mxPoint as="offset" />
          </mxGeometry>
        </mxCell>
        <mxCell id="E2VWVS-g6_oO1wDZF_A2-31" style="rounded=0;orthogonalLoop=1;jettySize=auto;html=1;exitX=1;exitY=0.5;exitDx=0;exitDy=0;entryX=0.5;entryY=1;entryDx=0;entryDy=0;curved=1;" edge="1" parent="1" source="E2VWVS-g6_oO1wDZF_A2-12" target="E2VWVS-g6_oO1wDZF_A2-24">
          <mxGeometry relative="1" as="geometry">
            <mxPoint x="800" y="150" as="targetPoint" />
            <Array as="points">
              <mxPoint x="800" y="190" />
            </Array>
          </mxGeometry>
        </mxCell>
        <mxCell id="E2VWVS-g6_oO1wDZF_A2-12" value="&lt;b&gt;CSS 样式设计&lt;/b&gt;" style="shape=parallelogram;perimeter=parallelogramPerimeter;whiteSpace=wrap;html=1;fixedSize=1;fillColor=#fff2cc;strokeColor=#d6b656;" vertex="1" parent="1">
          <mxGeometry x="630" y="170" width="120" height="60" as="geometry" />
        </mxCell>
        <mxCell id="E2VWVS-g6_oO1wDZF_A2-7" style="edgeStyle=orthogonalEdgeStyle;rounded=0;orthogonalLoop=1;jettySize=auto;html=1;exitX=0.25;exitY=1;exitDx=0;exitDy=0;entryX=0.25;entryY=0;entryDx=0;entryDy=0;" edge="1" parent="1" source="E2VWVS-g6_oO1wDZF_A2-3" target="E2VWVS-g6_oO1wDZF_A2-4">
          <mxGeometry relative="1" as="geometry" />
        </mxCell>
        <mxCell id="E2VWVS-g6_oO1wDZF_A2-10" style="edgeStyle=orthogonalEdgeStyle;rounded=0;orthogonalLoop=1;jettySize=auto;html=1;exitX=1;exitY=0.5;exitDx=0;exitDy=0;entryX=0;entryY=0.5;entryDx=0;entryDy=0;" edge="1" parent="1" source="E2VWVS-g6_oO1wDZF_A2-3" target="E2VWVS-g6_oO1wDZF_A2-9">
          <mxGeometry relative="1" as="geometry" />
        </mxCell>
        <mxCell id="E2VWVS-g6_oO1wDZF_A2-23" style="edgeStyle=orthogonalEdgeStyle;rounded=0;orthogonalLoop=1;jettySize=auto;html=1;exitX=1;exitY=0.75;exitDx=0;exitDy=0;entryX=0.5;entryY=1;entryDx=0;entryDy=0;" edge="1" parent="1" source="E2VWVS-g6_oO1wDZF_A2-3" target="E2VWVS-g6_oO1wDZF_A2-13">
          <mxGeometry relative="1" as="geometry" />
        </mxCell>
        <mxCell id="E2VWVS-g6_oO1wDZF_A2-3" value="&lt;b&gt;&lt;font style=&quot;font-size: 18px;&quot;&gt;后端逻辑&lt;/font&gt;&lt;/b&gt;" style="rounded=0;whiteSpace=wrap;html=1;fillColor=#dae8fc;strokeColor=#6c8ebf;" vertex="1" parent="1">
          <mxGeometry x="180" y="170" width="120" height="60" as="geometry" />
        </mxCell>
        <mxCell id="E2VWVS-g6_oO1wDZF_A2-8" style="edgeStyle=orthogonalEdgeStyle;rounded=0;orthogonalLoop=1;jettySize=auto;html=1;exitX=0.75;exitY=0;exitDx=0;exitDy=0;" edge="1" parent="1" source="E2VWVS-g6_oO1wDZF_A2-4">
          <mxGeometry relative="1" as="geometry">
            <mxPoint x="269.9655172413793" y="230" as="targetPoint" />
          </mxGeometry>
        </mxCell>
        <mxCell id="E2VWVS-g6_oO1wDZF_A2-4" value="&lt;b&gt;&lt;font style=&quot;font-size: 18px;&quot;&gt;CodeWars&lt;/font&gt;&lt;/b&gt;" style="rounded=1;whiteSpace=wrap;html=1;fillColor=#dae8fc;strokeColor=#6c8ebf;" vertex="1" parent="1">
          <mxGeometry x="180" y="250" width="120" height="60" as="geometry" />
        </mxCell>
        <mxCell id="E2VWVS-g6_oO1wDZF_A2-16" style="edgeStyle=orthogonalEdgeStyle;rounded=0;orthogonalLoop=1;jettySize=auto;html=1;exitX=1;exitY=0.5;exitDx=0;exitDy=0;" edge="1" parent="1" source="E2VWVS-g6_oO1wDZF_A2-9" target="E2VWVS-g6_oO1wDZF_A2-12">
          <mxGeometry relative="1" as="geometry" />
        </mxCell>
        <mxCell id="E2VWVS-g6_oO1wDZF_A2-21" style="edgeStyle=orthogonalEdgeStyle;rounded=0;orthogonalLoop=1;jettySize=auto;html=1;exitX=1;exitY=0.25;exitDx=0;exitDy=0;curved=1;" edge="1" parent="1" source="E2VWVS-g6_oO1wDZF_A2-9" target="E2VWVS-g6_oO1wDZF_A2-11">
          <mxGeometry relative="1" as="geometry" />
        </mxCell>
        <mxCell id="E2VWVS-g6_oO1wDZF_A2-22" style="edgeStyle=orthogonalEdgeStyle;rounded=0;orthogonalLoop=1;jettySize=auto;html=1;exitX=1;exitY=0.75;exitDx=0;exitDy=0;curved=1;" edge="1" parent="1" source="E2VWVS-g6_oO1wDZF_A2-9" target="E2VWVS-g6_oO1wDZF_A2-13">
          <mxGeometry relative="1" as="geometry" />
        </mxCell>
        <mxCell id="E2VWVS-g6_oO1wDZF_A2-9" value="&lt;b&gt;&lt;font style=&quot;font-size: 15px;&quot;&gt;添加TODO list&lt;/font&gt;&lt;/b&gt;" style="rounded=0;whiteSpace=wrap;html=1;fillColor=#fff2cc;strokeColor=#d6b656;" vertex="1" parent="1">
          <mxGeometry x="414" y="170" width="120" height="60" as="geometry" />
        </mxCell>
        <mxCell id="E2VWVS-g6_oO1wDZF_A2-25" style="edgeStyle=orthogonalEdgeStyle;rounded=0;orthogonalLoop=1;jettySize=auto;html=1;exitX=1;exitY=0.5;exitDx=0;exitDy=0;entryX=0;entryY=0.5;entryDx=0;entryDy=0;strokeColor=none;curved=1;" edge="1" parent="1" source="E2VWVS-g6_oO1wDZF_A2-12" target="E2VWVS-g6_oO1wDZF_A2-24">
          <mxGeometry relative="1" as="geometry" />
        </mxCell>
        <mxCell id="E2VWVS-g6_oO1wDZF_A2-32" style="rounded=0;orthogonalLoop=1;jettySize=auto;html=1;entryX=1;entryY=0.25;entryDx=0;entryDy=0;curved=1;" edge="1" parent="1" source="E2VWVS-g6_oO1wDZF_A2-24" target="E2VWVS-g6_oO1wDZF_A2-11">
          <mxGeometry relative="1" as="geometry">
            <Array as="points">
              <mxPoint x="690" y="60" />
            </Array>
          </mxGeometry>
        </mxCell>
        <mxCell id="E2VWVS-g6_oO1wDZF_A2-24" value="&lt;b&gt;&lt;font style=&quot;font-size: 16px;&quot;&gt;动画/样式&lt;/font&gt;&lt;/b&gt;" style="ellipse;whiteSpace=wrap;html=1;fillColor=#e1d5e7;strokeColor=#9673a6;" vertex="1" parent="1">
          <mxGeometry x="727" y="70" width="100" height="60" as="geometry" />
        </mxCell>
      </root>
    </mxGraphModel>
  </diagram>
</mxfile>
